<svg width="848" height="284" viewBox="0 0 848 284" fill="none" xmlns="http://www.w3.org/2000/svg">
<g clip-path="url(#clip0_250_4)">
<path d="M617.899 155.515C617.366 154.982 616.855 154.49 616.365 153.972C616.146 153.739 615.968 153.463 615.779 153.198C615.612 152.961 615.639 152.704 615.768 152.45C615.866 152.257 616.249 152.147 616.463 152.251C616.926 152.482 617.387 152.713 617.847 152.948C618.422 153.245 619.006 153.512 619.655 153.631C620.181 153.727 620.561 153.556 620.796 153.089C621.258 152.173 621.447 151.192 621.575 150.194C621.607 149.95 621.438 149.646 621.217 149.559C618.736 148.582 616.441 147.271 614.272 145.729C614.219 145.69 614.165 145.655 614.112 145.618C613.659 145.304 613.156 145.255 612.62 145.362C611.482 145.588 610.733 146.305 610.316 147.374C609.678 149.005 609.689 150.645 610.224 152.262C610.583 153.354 611.205 154.257 612.159 154.884C612.697 155.24 613.244 155.586 613.807 155.903C615.019 156.586 616.284 156.576 617.559 155.963C617.704 155.894 617.783 155.673 617.899 155.515ZM607.209 151.513C607.301 150.627 607.34 149.964 607.444 149.31C607.765 147.315 608.545 145.578 610.314 144.429C610.89 144.055 610.933 143.759 610.478 143.343C608.559 141.592 606.778 139.7 604.995 137.811C603.437 136.155 601.902 134.477 600.345 132.821C599.991 132.443 599.606 132.091 599.207 131.764C598.88 131.494 598.477 131.473 598.107 131.7C597.712 131.943 597.314 132.201 596.977 132.52C595.489 133.935 594.436 135.642 593.737 137.572C593.631 137.865 593.725 138.262 593.991 138.462C595.804 139.818 597.539 141.301 599.744 142.027C600.108 142.147 600.456 142.342 600.767 142.566C600.884 142.651 600.94 142.931 600.899 143.093C600.861 143.254 600.676 143.471 600.531 143.498C600.22 143.557 599.873 143.575 599.575 143.494C598.449 143.185 597.325 142.862 596.295 142.295C595.784 142.014 595.259 141.759 594.737 141.501C594.55 141.408 594.18 141.591 594.098 141.814C593.614 143.145 593.22 144.496 593.082 145.905C593.037 146.351 593.194 146.711 593.578 146.886C594.285 147.204 595.001 147.514 595.737 147.756C598.139 148.546 600.555 149.295 602.96 150.075C604.314 150.515 605.657 150.986 607.209 151.513ZM619.155 157.358C619.323 157.502 619.513 157.676 619.712 157.836C621.226 159.052 622.765 160.236 624.25 161.486C626.23 163.154 628.174 164.866 630.123 166.57C630.662 167.041 631.198 167.51 631.87 167.773C632.033 167.837 632.27 167.846 632.43 167.771C633.102 167.457 633.64 166.93 634.131 166.386C634.749 165.703 635.545 165.143 635.84 164.222C635.667 163.787 635.294 163.633 634.956 163.457C633.856 162.885 632.914 162.093 631.978 161.295C631.587 160.964 631.28 160.533 630.946 160.139C630.829 159.999 630.929 159.603 631.091 159.407C631.251 159.21 631.476 159.232 631.623 159.313C632.13 159.594 632.622 159.907 633.103 160.231C634.835 161.391 636.702 162.267 638.683 162.914C639.026 163.025 639.317 162.933 639.561 162.652C641.06 160.926 641.881 158.895 642.269 156.675C642.313 156.415 642.29 156.142 642.281 155.878C642.265 155.38 642.002 155.026 641.489 154.904C640.166 154.586 638.841 154.27 637.507 154C632.928 153.077 628.329 152.244 623.881 150.808C623.787 150.777 623.659 150.849 623.486 150.885C623.465 151.473 623.463 152.069 623.42 152.662C623.366 153.396 623.244 154.118 622.88 154.789C622.434 155.608 621.789 156.14 620.89 156.321C620.568 156.385 620.223 156.368 619.926 156.488C619.575 156.631 619.189 156.81 619.155 157.358ZM663.108 103.414C663.175 103.419 663.247 103.445 663.304 103.426C663.738 103.272 664.18 103.137 664.598 102.945C669.261 100.803 673.638 98.1338 677.849 95.1553C681.513 92.5637 684.925 89.6657 688.088 86.448C691.53 82.9451 694.676 79.196 697.528 75.1811C699.446 72.4819 701.097 69.6347 702.601 66.6947C703.37 65.1902 703.935 63.6058 704.329 61.9687C704.519 61.1832 704.621 60.3851 704.529 59.5828C704.409 58.5619 703.88 57.8941 702.912 57.5879C702.285 57.3899 701.641 57.2842 700.987 57.3538C700.076 57.45 699.151 57.5338 698.266 57.7692C696.995 58.1085 695.734 58.5251 694.502 59.0039C692.151 59.9177 689.903 61.0759 687.706 62.3405C683.017 65.0409 678.625 68.1899 674.418 71.6293C669.204 75.8899 664.575 80.7211 660.593 86.1931C659.842 87.226 659.128 88.2888 658.403 89.3419C658.131 89.736 658.147 90.0123 658.439 90.4316C658.588 90.6459 658.742 90.8565 658.896 91.0657C660.508 93.2461 661.6 95.6919 662.197 98.368C662.485 99.6559 662.64 100.98 662.85 102.288C662.911 102.671 662.849 103.086 663.108 103.414ZM639.647 81.9259C639.826 81.5262 639.98 81.2278 640.096 80.9182C641.397 77.447 642.501 73.9168 643.439 70.3386C644.702 65.5232 645.772 60.6716 646.322 55.7335C646.956 50.0408 646.92 44.3845 645.955 38.7838C645.492 36.0932 644.802 33.4756 643.763 30.9713C643.181 29.5707 642.49 28.236 641.626 26.9961C641.023 26.1316 640.312 25.3827 639.48 24.7508C638.806 24.2381 638.011 24.1857 637.289 24.7007C636.752 25.0858 636.225 25.5254 635.796 26.0301C635.013 26.9525 634.311 27.9422 633.713 29.008C632.291 31.5485 631.186 34.2292 630.224 36.9591C627.686 44.1634 626.041 51.5568 625.171 59.108C624.777 62.5289 624.857 65.9154 625.383 69.2811C625.712 71.3837 626.181 73.4514 626.817 75.4675C627.393 77.2928 628.014 79.1021 628.634 80.9114C629.02 82.0334 629.44 83.1432 629.852 84.2541C630.117 84.9703 630.261 85.0149 631.024 84.6455C631.442 84.4436 631.857 84.2296 632.279 84.0331C634.281 83.1023 636.352 82.4314 638.517 82.1135C638.841 82.0655 639.165 82.0056 639.647 81.9259ZM619.228 144.914C621.509 146.217 623.969 146.986 626.587 147.298C628.936 147.578 631.284 147.481 633.629 147.066C639.254 146.069 644.328 143.713 648.908 140.147C650.604 138.826 652.161 137.343 653.494 135.639C655.085 133.605 656.343 131.391 656.906 128.835C657.567 125.819 658.281 122.812 658.902 119.789C659.566 116.568 660.116 113.326 660.433 110.058C660.665 107.656 660.769 105.256 660.609 102.855C660.471 100.787 660.139 98.7614 659.481 96.8121C658.645 94.3388 657.341 92.1795 655.545 90.3253C654.451 89.1976 653.24 88.224 651.95 87.3573C649.443 85.6724 646.676 84.5817 643.683 84.101C640.38 83.5704 637.17 84.1341 634.045 85.4477C632.264 86.1964 630.586 87.1535 628.974 88.2401C626.696 89.7754 624.576 91.5192 622.547 93.3835C618.34 97.249 614.477 101.459 610.785 105.828C608.764 108.217 607.327 110.949 606.447 113.974C605.472 117.324 605.249 120.698 605.681 124.102C606.366 129.512 608.481 134.258 611.778 138.441C613.856 141.078 616.342 143.234 619.228 144.914ZM632.745 150.514C632.885 150.751 633.095 150.902 633.362 150.939C634.199 151.062 635.04 151.162 635.877 151.285C637.681 151.548 639.485 151.804 641.283 152.096C641.858 152.189 642.431 152.342 642.974 152.544C643.951 152.905 644.549 153.642 644.822 154.668C644.976 155.251 645.005 155.847 644.969 156.452C644.914 157.397 644.69 158.319 644.347 159.194C643.476 161.414 642.256 163.418 640.475 165.036C640.326 165.171 640.18 165.316 640.013 165.423C639.661 165.647 639.283 165.74 638.889 165.583C638.711 165.511 638.537 165.42 638.373 165.318C637.525 164.78 637.262 165.069 636.812 165.818C636.219 166.805 635.537 167.726 634.762 168.569C634.312 169.059 633.799 169.505 633.262 169.894C632.567 170.396 631.798 170.472 631.018 170.132C629.76 169.584 628.625 168.837 627.57 167.967C626.215 166.854 624.949 165.64 623.738 164.368C622.217 162.766 620.701 161.156 619.177 159.556C618.687 159.043 618.173 158.551 617.753 158.133C617.219 157.987 616.859 158.218 616.481 158.312C615.157 158.642 613.879 158.554 612.648 158.017C612.409 157.913 612.168 157.82 611.934 157.707C610.21 156.866 608.698 155.792 607.917 153.912C607.869 153.794 607.765 153.701 607.678 153.587C607.116 153.268 606.467 153.192 605.833 153.053C603.232 152.481 600.607 152.01 598.031 151.323C596.393 150.886 594.816 150.305 593.27 149.627C592.669 149.362 592.144 148.994 591.642 148.576C591.045 148.076 590.818 147.422 590.844 146.645C590.874 145.766 591.074 144.918 591.404 144.1C591.831 143.039 592.281 141.985 592.721 140.928C592.83 140.666 592.768 140.357 592.562 140.223C592.292 140.045 592.016 139.878 591.735 139.716C591.215 139.414 591.067 138.922 591.172 138.357C591.719 135.364 593.026 132.747 595.174 130.575C595.836 129.905 596.59 129.342 597.474 128.998C598.608 128.555 599.686 128.608 600.62 129.371C601.218 129.862 601.759 130.432 602.278 131.011C603.143 131.98 603.971 132.985 604.819 133.968C604.849 134.004 604.946 134 605.003 133.981C605.037 133.971 605.082 133.888 605.072 133.855C604.894 133.291 604.723 132.724 604.519 132.17C603.515 129.429 602.897 126.59 602.696 123.646C602.455 120.149 602.857 116.709 603.94 113.334C604.983 110.086 606.567 107.115 608.833 104.566C612.721 100.192 616.676 95.881 621.017 91.9597C622.513 90.6076 624.054 89.3184 625.649 88.0943C626.017 87.8127 626.38 87.5229 626.693 87.2789C626.813 86.8493 626.679 86.5399 626.583 86.227C626.134 84.7763 625.675 83.3288 625.226 81.8795C624.444 79.3552 623.715 76.8146 623.175 74.2158C622.431 70.6308 622.056 67.0014 622.207 63.303C622.296 61.16 622.595 59.0371 622.966 56.921C624.141 50.2288 625.889 43.6769 628.244 37.2776C629.153 34.8111 630.258 32.4236 631.417 30.0618C632.194 28.4808 633.183 27.0339 634.24 25.634C634.768 24.9347 635.373 24.2938 636.098 23.8017C636.483 23.5414 636.892 23.2977 637.318 23.1315C638.161 22.8 639.006 22.8152 639.767 23.3053C640.253 23.6177 640.723 23.9711 641.149 24.3652C642.308 25.434 643.157 26.7536 643.901 28.1454C645.019 30.2355 645.838 32.4611 646.487 34.7567C647.406 38.0099 647.98 41.3404 648.289 44.7314C648.838 50.7284 648.559 56.7275 647.7 62.7236C646.822 68.8355 645.621 74.8884 643.887 80.8423C643.774 81.2262 643.632 81.617 643.879 82.0596C644.652 82.2461 645.475 82.4142 646.279 82.6459C648.665 83.3332 650.884 84.3914 652.975 85.7186C653.63 86.1359 654.277 86.5676 654.933 86.9856C655.17 87.1373 655.459 87.0976 655.636 86.8848C656.494 85.8492 657.349 84.8089 658.198 83.765C661.649 79.5172 665.497 75.6779 669.733 72.2548C674.435 68.4576 679.381 65.0361 684.605 62.0474C687.096 60.6204 689.643 59.312 692.274 58.1926C694.294 57.3345 696.356 56.6065 698.498 56.1723C699.73 55.9225 700.964 55.8003 702.211 55.9337C702.94 56.0114 703.595 56.251 704.227 56.6034C705.137 57.1102 705.651 57.9057 705.879 58.922C706.054 59.7102 706.044 60.5186 705.898 61.3114C705.714 62.2987 705.508 63.294 705.185 64.2448C704.733 65.5816 704.223 66.902 703.581 68.1707C701.814 71.6687 699.829 75.0256 697.575 78.2352C693.767 83.6612 689.505 88.6776 684.635 93.1414C679.114 98.2023 673.059 102.476 666.513 105.997C665.399 106.596 664.25 107.118 663.105 107.682C663.052 107.875 662.963 108.066 662.952 108.26C662.654 113.821 661.627 119.295 660.523 124.761C660.218 126.273 659.84 127.775 659.553 129.29C659.146 131.438 658.263 133.384 657.146 135.251C655.64 137.772 653.697 139.909 651.493 141.787C646.381 146.14 640.597 149.004 634.107 150.256C633.658 150.344 633.215 150.469 632.77 150.581C632.688 150.594 632.767 150.533 632.745 150.514Z" fill="white"/>
<path d="M634.224 74.847C633.854 75.4661 633.487 76.0865 633.115 76.703C632.872 77.1039 632.525 77.4059 632.142 77.6701C631.428 78.162 630.427 78.1204 629.701 77.5781C629.207 77.2094 628.782 76.7709 628.548 76.2095C628.269 75.5358 628.007 74.8477 627.822 74.1458C627.503 72.9222 627.398 71.6679 627.37 70.4124C627.364 70.0937 627.444 69.7573 627.562 69.4614C627.624 69.3105 627.847 69.1971 628.024 69.128C628.203 69.0584 628.628 69.2994 628.697 69.4744C628.769 69.6574 628.855 69.8424 628.878 70.0321C628.969 70.8202 629.022 71.6105 629.121 72.3973C629.237 73.3185 629.44 74.226 629.824 75.0842C629.957 75.3828 630.157 75.6602 630.356 75.9245C630.596 76.245 631.176 76.2832 631.418 76.0014C631.63 75.755 631.843 75.5013 632.009 75.2222C632.788 73.9053 633.166 72.4463 633.451 70.9536C633.819 69.0106 633.977 67.0443 634.016 65.0652C634.098 60.9772 633.983 56.8883 633.549 52.8088C633.38 51.2348 633.117 49.6646 632.826 48.1035C632.656 47.1963 632.374 46.3034 632.089 45.419C631.927 44.918 631.683 44.4355 631.43 43.9674C631.073 43.3076 630.472 43.2705 629.992 43.8348C629.562 44.3408 629.225 44.8911 628.995 45.5179C628.447 47.0131 628.19 48.5586 628.127 50.1499C628.104 50.7388 628.043 51.3269 627.984 51.9142C627.963 52.1293 627.661 52.3652 627.419 52.3955C627.116 52.4346 626.722 52.1615 626.659 51.8602C626.606 51.6017 626.54 51.3418 626.526 51.081C626.434 49.426 626.524 47.7876 626.863 46.1683C627.108 44.9965 627.552 43.912 628.193 42.906C628.334 42.6846 628.477 42.458 628.661 42.2732C630.145 40.7901 631.925 41.0519 632.986 42.4777C633.382 43.0115 633.735 43.593 633.997 44.1974C634.366 45.0502 634.704 45.9278 634.931 46.8242C636.735 53.9745 637.31 61.1715 636.074 68.4179C635.697 70.6267 635.138 72.7873 634.224 74.847Z" fill="white"/>
<path d="M687.459 73.63C686.148 76.2394 684.302 78.4423 682.158 80.4138C681.921 80.6324 681.623 80.7887 681.344 80.9609C681.17 81.0688 680.792 80.9821 680.598 80.814C680.414 80.6519 680.32 80.2681 680.444 80.0913C680.671 79.7739 680.885 79.4353 681.161 79.1636C682.101 78.2377 682.908 77.2061 683.686 76.1486C684.781 74.6584 685.599 73.0206 686.273 71.3066C686.32 71.1858 686.359 71.0532 686.357 70.9248C686.356 70.803 686.329 70.6507 686.252 70.5665C686.178 70.4856 686.008 70.4191 685.91 70.4439C685.59 70.5302 685.265 70.6251 684.978 70.7801C683.759 71.4418 682.517 72.0736 681.352 72.8173C679.629 73.9167 677.936 75.0656 676.277 76.2556C673.333 78.3668 670.428 80.5336 667.495 82.6587C665.567 84.0552 664.182 85.8268 663.485 88.1067C663.329 88.6183 663.264 89.1352 663.326 89.6649C663.384 90.1387 663.595 90.5564 663.985 90.8597C664.584 91.326 665.253 91.5901 666.03 91.5792C666.854 91.5687 667.604 91.3331 668.339 91.0165C668.761 90.8355 669.187 90.6599 669.62 90.5021C669.847 90.4203 670.158 90.5913 670.288 90.8326C670.415 91.066 670.407 91.4432 670.274 91.5797C670.228 91.6254 670.193 91.685 670.141 91.7228C668.885 92.6475 667.479 93.1668 665.884 93.1717C664.686 93.1759 663.652 92.7095 662.753 91.963C661.994 91.3335 661.622 90.4813 661.58 89.5133C661.533 88.3741 661.789 87.2926 662.223 86.2541C663.016 84.3521 664.157 82.6721 665.689 81.2914C669.7 77.6741 673.934 74.3344 678.582 71.52C680.107 70.5968 681.649 69.6988 683.287 68.976C684.013 68.6546 684.761 68.3743 685.522 68.1441C685.959 68.0113 686.438 67.9664 686.9 67.9675C687.958 67.9688 688.64 68.7135 688.692 69.7402C688.725 70.4014 688.617 71.0522 688.372 71.6697C688.274 71.9138 688.182 72.1592 688.069 72.396C687.873 72.8104 687.663 73.2195 687.459 73.63Z" fill="white"/>
</g>
<path d="M30.3081 213.162L31.8121 214.504C30.7893 215.65 30.1254 216.731 29.8203 217.745C29.5102 218.669 29.5879 219.639 30.0535 220.656C30.514 221.581 31.4127 222.641 32.7497 223.834L46.0711 235.724C47.5512 237.045 49.0851 238.114 50.6726 238.931C52.2549 239.657 53.9395 239.788 55.7262 239.324C57.5079 238.769 59.4854 237.274 61.6589 234.839C63.7898 232.452 65.543 230.199 66.9186 228.082C68.3368 225.916 69.3825 223.976 70.0557 222.26L71.2732 223.347C70.8932 224.638 70.2575 226.215 69.3661 228.079C68.4269 229.9 67.3335 231.798 66.0858 233.772C64.7903 235.704 63.3967 237.506 61.9051 239.177C60.0726 241.23 58.2596 242.829 56.4661 243.973C54.6249 245.075 52.8748 245.786 51.2159 246.107C49.02 246.549 46.9927 246.369 45.1341 245.568C43.2278 244.725 41.0332 243.195 38.5503 240.979L26.8046 230.495C25.4677 229.301 24.2706 228.576 23.2135 228.319C22.1512 227.971 21.1146 228.075 20.1036 228.631C19.0875 229.097 17.9828 229.998 16.7895 231.335L15.2855 229.993C16.0577 229.224 17.2587 228.022 18.8884 226.389C20.513 224.665 22.0285 223.015 23.4349 221.439C24.8412 219.864 26.1811 218.314 27.4545 216.792C28.7227 215.178 29.6739 213.969 30.3081 213.162ZM54.5359 186.018L55.9683 187.296C54.5671 188.962 53.65 190.374 53.2171 191.532C52.7791 192.599 52.862 193.66 53.4657 194.714C54.0217 195.724 55.1831 197.018 56.9497 198.595L92.4735 230.302C94.1924 231.837 95.6094 232.844 96.7245 233.325C97.8397 233.805 98.9028 233.768 99.9137 233.212C100.967 232.608 102.266 231.537 103.811 229.999L105.243 231.277C104.253 232.195 103.033 233.465 101.584 235.089C100.087 236.669 98.508 238.391 96.8459 240.253C95.1412 242.163 93.4391 244.118 91.7395 246.118C90.0348 248.028 88.6762 249.646 87.6637 250.973L86.2313 249.694C87.9257 247.604 89.0984 245.905 89.7495 244.599C90.4006 243.293 90.4456 242.089 89.8845 240.988C89.366 239.839 88.2473 238.497 86.5284 236.963L51.0046 205.256C49.238 203.679 47.8209 202.672 46.7535 202.234C45.6384 201.753 44.554 201.815 43.5004 202.418C42.4417 202.932 41.164 203.979 39.6673 205.56L38.2348 204.281C39.1776 203.321 40.3973 202.051 41.894 200.47C43.3907 198.889 44.9701 197.168 46.6322 195.305C48.1238 193.634 49.5702 191.966 50.9715 190.3C52.4153 188.586 53.6035 187.159 54.5359 186.018Z" fill="white"/>
<path d="M82.6584 160.348L140.03 190.405C142.353 191.605 144.246 192.118 145.709 191.945C147.13 191.723 148.247 191.299 149.06 190.673L150.324 192.119C149.276 192.865 148.053 193.849 146.655 195.07C145.216 196.243 143.797 197.44 142.399 198.661C140.52 200.304 138.782 201.865 137.185 203.345C135.547 204.777 134.263 205.983 133.336 206.964L132.072 205.518C134.446 203.274 135.654 201.496 135.697 200.183C135.698 198.822 134.143 197.334 131.031 195.719L86.191 171.54L86.5264 169.589L102.5 213.256C103.413 215.857 104.387 217.896 105.422 219.371C106.414 220.799 107.44 221.73 108.499 222.164C109.607 222.556 110.79 222.5 112.049 221.995C113.356 221.448 114.777 220.546 116.313 219.288L117.576 220.734C116.143 221.817 114.679 223.011 113.185 224.317C111.697 225.532 110.327 226.687 109.074 227.782C107.869 228.834 106.854 229.764 106.028 230.57C105.209 231.286 104.48 232.008 103.841 232.736L102.578 231.29C103.331 230.207 103.835 228.79 104.089 227.038C104.301 225.238 103.869 222.895 102.793 220.011L81.5017 161.359C81.6945 161.19 81.8873 161.022 82.0801 160.853C82.2728 160.685 82.4656 160.517 82.6584 160.348ZM118.324 183.365L119.587 184.811L98.045 203.635L97.5046 201.557L118.324 183.365Z" fill="white"/>
<path d="M110.791 137.645C111.936 136.939 113.425 135.997 115.256 134.82C117.088 133.644 118.875 132.458 120.617 131.265C123.099 129.566 125.457 127.912 127.692 126.304C129.926 124.696 131.518 123.567 132.469 122.916C138.858 118.54 144.632 116.72 149.789 117.454C154.946 118.189 159.098 120.853 162.244 125.447C163.545 127.348 164.603 129.572 165.416 132.118C166.192 134.611 166.403 137.298 166.049 140.178C165.711 142.969 164.575 145.841 162.641 148.795C160.708 151.748 157.682 154.635 153.563 157.455L145.959 162.663L144.874 161.079L151.686 156.414C155.435 153.846 157.798 151.181 158.776 148.417C159.806 145.617 159.869 142.82 158.964 140.027C158.112 137.197 156.764 134.436 154.92 131.743C151.484 126.726 147.913 123.664 144.207 122.557C140.554 121.413 136.325 122.486 131.519 125.777C129.09 127.44 127.814 128.974 127.689 130.378C127.565 131.782 128.443 133.857 130.323 136.603L157.228 175.889C158.529 177.79 159.691 179.089 160.711 179.787C161.785 180.448 163.011 180.539 164.389 180.06C165.768 179.582 167.602 178.636 169.892 177.222L170.977 178.807C169.532 179.641 167.753 180.782 165.641 182.228C163.493 183.622 161.336 185.06 159.171 186.543C157.112 187.953 155.203 189.299 153.443 190.582C151.648 191.811 150.232 192.858 149.195 193.723L148.111 192.139C149.834 190.804 151.036 189.671 151.716 188.739C152.45 187.772 152.649 186.704 152.315 185.536C151.981 184.369 151.163 182.835 149.861 180.934L122.957 141.647C121.619 139.694 120.484 138.376 119.552 137.696C118.585 136.962 117.517 136.762 116.35 137.097C115.199 137.342 113.708 138.053 111.876 139.229L110.791 137.645Z" fill="white"/>
<path d="M180.311 93.9243L181.25 95.5988C179.384 96.7193 178.058 97.7567 177.272 98.7111C176.511 99.5783 176.245 100.608 176.474 101.801C176.671 102.938 177.35 104.539 178.508 106.604L201.806 148.131C202.933 150.14 203.946 151.553 204.844 152.37C205.743 153.187 206.761 153.497 207.897 153.299C209.09 153.071 210.666 152.48 212.627 151.527L213.566 153.201C212.22 153.81 210.57 154.662 208.616 155.758C206.687 156.767 204.746 157.819 202.792 158.915C200.616 160.136 198.594 161.307 196.727 162.428C194.83 163.492 193.326 164.409 192.217 165.179L191.277 163.504C193.112 162.328 194.41 161.306 195.171 160.439C195.988 159.54 196.282 158.495 196.053 157.302C195.825 156.11 195.147 154.509 194.019 152.499L170.722 110.972C169.563 108.907 168.55 107.494 167.683 106.733C166.784 105.916 165.739 105.622 164.546 105.851C163.378 105.992 161.83 106.568 159.901 107.576L158.961 105.902C160.165 105.3 161.731 104.495 163.66 103.486C165.589 102.477 167.642 101.362 169.819 100.141C171.772 99.0448 173.682 97.9366 175.549 96.8161C177.471 95.6643 179.058 94.7004 180.311 93.9243Z" fill="white"/>
<path d="M189.374 88.8118C190.627 88.3208 192.259 87.6597 194.271 86.8286C196.283 85.9975 198.253 85.1503 200.18 84.2869C202.925 83.0573 205.541 81.8508 208.026 80.6674C210.512 79.484 212.28 78.6569 213.331 78.186C219.464 75.4389 224.654 74.6571 228.901 75.8405C233.148 77.0239 236.174 79.6306 237.979 83.6608C238.894 85.7051 239.359 87.9164 239.372 90.2947C239.418 92.5885 238.814 94.9978 237.561 97.5228C236.34 99.9632 234.316 102.412 231.49 104.87L231.568 105.046C236.444 103.563 240.534 103.064 243.836 103.548C247.171 103.948 249.848 104.993 251.867 106.683C253.887 108.373 255.433 110.415 256.505 112.81C257.996 116.14 258.471 119.468 257.928 122.797C257.418 126.041 255.912 129.1 253.412 131.973C250.912 134.846 247.472 137.263 243.091 139.225C241.806 139.801 239.866 140.635 237.27 141.728C234.647 142.762 231.526 144.09 227.904 145.712C225.86 146.628 223.858 147.56 221.898 148.508C219.912 149.397 218.332 150.175 217.158 150.841L216.373 149.089C218.307 148.083 219.692 147.182 220.527 146.387C221.422 145.566 221.809 144.551 221.688 143.342C221.568 142.134 221.037 140.479 220.095 138.376L200.63 94.92C199.662 92.7589 198.781 91.2604 197.985 90.4244C197.164 89.53 196.149 89.1431 194.941 89.2635C193.765 89.2994 192.171 89.7329 190.159 90.564L189.374 88.8118ZM211.887 80.8317C209.2 82.0352 207.67 83.3165 207.297 84.6757C206.924 86.0349 207.418 88.2331 208.778 91.2704L228.243 134.726C229.159 136.771 230.027 138.24 230.848 139.134C231.67 140.029 232.626 140.442 233.718 140.374C234.809 140.305 236.26 139.866 238.071 139.055C243.795 136.491 247.353 133.319 248.746 129.54C250.171 125.676 249.785 121.29 247.587 116.384C245.572 111.887 242.789 108.961 239.237 107.606C235.744 106.226 231.223 106.778 225.674 109.264L216.65 113.306C216.65 113.306 216.545 113.072 216.336 112.605C216.1 112.079 215.983 111.816 215.983 111.816L223.517 108.442C226.963 106.898 229.333 105.065 230.627 102.943C231.894 100.762 232.394 98.4345 232.127 95.9594C231.834 93.426 231.125 90.9035 230 88.3919C228.064 84.0697 225.648 81.2597 222.752 79.9619C219.889 78.5796 216.267 78.8695 211.887 80.8317Z" fill="white"/>
<path d="M304.593 117.471L304.048 115.63C306.098 114.889 307.59 114.18 308.524 113.503C309.519 112.807 310.038 111.853 310.079 110.639C310.12 109.425 309.813 107.714 309.158 105.505L295.632 59.8504C294.96 57.58 294.285 55.9777 293.608 55.0436C292.912 54.0482 291.958 53.5299 290.744 53.489C289.574 53.3685 287.936 53.5867 285.832 54.1434L285.286 52.3025C286.716 51.9457 288.513 51.4799 290.679 50.9049C292.845 50.33 294.971 49.7335 297.058 49.1154C299.451 48.4063 301.682 47.7121 303.75 47.0326C305.818 46.3531 307.487 45.7918 308.758 45.3487L309.303 47.1896C307.235 47.8691 305.712 48.5872 304.735 49.344C303.801 50.0212 303.313 50.9667 303.272 52.1803C303.213 53.3325 303.52 55.0439 304.193 57.3144L317.719 102.969C318.373 105.178 319.048 106.78 319.743 107.776C320.439 108.771 321.363 109.298 322.515 109.358C323.729 109.399 325.397 109.171 327.519 108.676L328.065 110.517C326.74 110.776 325.034 111.214 322.948 111.833C320.843 112.389 318.594 113.022 316.201 113.731C314.115 114.349 312.007 115.007 309.877 115.705C307.73 116.341 305.968 116.93 304.593 117.471ZM266.118 128.869L265.573 127.029C267.623 126.288 269.115 125.579 270.049 124.901C271.045 124.206 271.563 123.251 271.604 122.038C271.645 120.824 271.338 119.113 270.683 116.904L257.157 71.2492C256.485 68.9788 255.81 67.3765 255.133 66.4424C254.437 65.447 253.483 64.9287 252.269 64.8878C251.099 64.7673 249.461 64.9855 247.357 65.5422L246.811 63.7013C248.118 63.3809 249.824 62.9423 251.928 62.3855C254.033 61.8288 256.282 61.1959 258.675 60.4869C260.823 59.8506 262.931 59.1927 264.999 58.5132C267.128 57.8156 268.89 57.227 270.283 56.7475L270.828 58.5884C268.76 59.2679 267.237 59.986 266.26 60.7428C265.326 61.42 264.838 62.3655 264.797 63.5791C264.738 64.7313 265.045 66.4427 265.718 68.7132L279.244 114.368C279.898 116.577 280.573 118.179 281.268 119.175C281.964 120.17 282.888 120.697 284.04 120.756C285.254 120.797 286.922 120.57 289.044 120.075L289.59 121.916C288.142 122.211 286.344 122.677 284.197 123.313C282.092 123.87 279.966 124.466 277.818 125.103C275.425 125.812 273.194 126.506 271.126 127.186C269.04 127.804 267.371 128.365 266.118 128.869ZM269.477 93.2312L268.932 91.3903L305.29 80.6187L305.835 82.4596L269.477 93.2312Z" fill="white"/>
<path d="M343.713 39.7214L343.985 41.6221C341.84 41.9931 340.229 42.4819 339.152 43.0882C338.129 43.6222 337.509 44.4866 337.292 45.6813C337.065 46.8127 337.12 48.5504 337.454 50.8947L344.187 98.0323C344.513 100.313 344.947 101.997 345.49 103.083C346.033 104.169 346.871 104.825 348.002 105.051C349.197 105.269 350.88 105.287 353.052 105.106L353.324 107.007C351.849 107.088 350.002 107.287 347.785 107.604C345.622 107.848 343.431 108.129 341.214 108.445C338.743 108.798 336.435 109.16 334.29 109.531C332.136 109.839 330.402 110.151 329.09 110.468L328.818 108.567C330.954 108.133 332.534 107.649 333.557 107.115C334.643 106.572 335.294 105.703 335.512 104.508C335.729 103.313 335.675 101.576 335.349 99.2947L328.616 52.157C328.281 49.8128 327.847 48.1293 327.313 47.1066C326.77 46.0204 325.901 45.3688 324.706 45.1515C323.566 44.8618 321.914 44.8392 319.751 45.0835L319.479 43.1828C320.819 43.0561 322.57 42.8706 324.734 42.6263C326.897 42.382 329.214 42.0833 331.685 41.7304C333.902 41.4137 336.083 41.0698 338.229 40.6988C340.437 40.3187 342.265 39.9929 343.713 39.7214ZM371.314 42.1794C371.314 42.1794 371.332 42.5324 371.369 43.2384C371.396 43.881 371.427 44.5553 371.464 45.2613C371.563 45.9582 371.613 46.3067 371.613 46.3067L341.295 105.621L340.997 101.494L371.314 42.1794ZM385.339 33.776L385.611 35.6767C383.465 36.0477 381.854 36.5364 380.777 37.1428C379.754 37.6768 379.134 38.5411 378.917 39.7359C378.691 40.8672 378.745 42.605 379.08 44.9492L385.813 92.0868C386.139 94.3677 386.573 96.0512 387.116 97.1373C387.659 98.2234 388.496 98.8796 389.628 99.1059C390.822 99.3232 392.506 99.3413 394.678 99.1604L394.949 101.061C393.601 101.124 391.849 101.31 389.695 101.618C387.532 101.862 385.215 102.161 382.744 102.513C380.59 102.821 378.409 103.165 376.2 103.545C373.983 103.862 372.155 104.188 370.715 104.522L370.444 102.622C372.58 102.187 374.159 101.703 375.182 101.169C376.268 100.626 376.92 99.7573 377.137 98.5626C377.354 97.3679 377.3 95.6301 376.974 93.3492L370.242 46.2116C369.907 43.8674 369.472 42.1839 368.938 41.1611C368.395 40.075 367.527 39.4233 366.332 39.2061C365.191 38.9164 363.54 38.8937 361.376 39.1381L361.105 37.2373C362.571 37.0926 364.418 36.8935 366.644 36.6401C368.871 36.3867 371.061 36.1062 373.215 35.7985C375.686 35.4456 377.994 35.0836 380.139 34.7126C382.284 34.3416 384.018 34.0294 385.339 33.776Z" fill="white"/>
<path d="M423.084 33.2726L423.068 35.1925C420.892 35.2381 419.225 35.48 418.07 35.9183C416.979 36.293 416.236 37.0548 415.842 38.2035C415.449 39.2882 415.242 41.0145 415.222 43.3824L414.819 90.9967C414.8 93.3007 414.977 95.0302 415.352 96.1854C415.726 97.3406 416.455 98.1148 417.54 98.508C418.689 98.9018 420.351 99.1718 422.525 99.3182L422.509 101.238C421.038 101.098 419.183 101.018 416.943 100.999C414.768 100.917 412.56 100.866 410.32 100.847C407.824 100.826 405.488 100.838 403.311 100.884C401.135 100.865 399.375 100.914 398.03 101.031L398.046 99.1111C400.223 99.0015 401.857 98.7593 402.949 98.3845C404.104 98.0103 404.878 97.2488 405.272 96.1001C405.666 94.9514 405.872 93.2251 405.892 90.9212L406.295 43.3069C406.315 40.939 406.137 39.2094 405.763 38.1182C405.388 36.963 404.627 36.1885 403.478 35.7948C402.394 35.3376 400.764 35.0678 398.589 34.9854L398.605 33.0654C399.949 33.1408 401.708 33.2197 403.883 33.3021C406.059 33.3845 408.394 33.4363 410.89 33.4574C413.13 33.4764 415.338 33.4631 417.515 33.4175C419.755 33.3724 421.612 33.3241 423.084 33.2726ZM450.006 39.8367C450.006 39.8367 449.971 40.1884 449.901 40.8918C449.831 41.5312 449.762 42.2027 449.692 42.9061C449.686 43.6101 449.683 43.9621 449.683 43.9621L410.824 98.0672L411.146 93.9418L450.006 39.8367ZM465.131 33.6284L465.115 35.5484C462.938 35.594 461.272 35.8359 460.116 36.2741C459.025 36.6489 458.283 37.4106 457.889 38.5593C457.496 39.644 457.289 41.3704 457.269 43.7383L456.866 91.3526C456.847 93.6565 457.024 95.3861 457.398 96.5413C457.772 97.6965 458.502 98.4707 459.587 98.8639C460.735 99.2576 462.397 99.5277 464.572 99.6741L464.556 101.594C463.213 101.455 461.453 101.376 459.277 101.357C457.102 101.275 454.766 101.223 452.27 101.202C450.095 101.184 447.886 101.197 445.646 101.242C443.406 101.223 441.55 101.271 440.076 101.387L440.093 99.4669C442.27 99.3573 443.904 99.1152 444.995 98.7404C446.15 98.3661 446.925 97.6047 447.318 96.456C447.712 95.3072 447.919 93.5809 447.938 91.277L448.341 43.6627C448.361 41.2948 448.184 39.5652 447.809 38.474C447.435 37.3188 446.673 36.5443 445.525 36.1506C444.441 35.6934 442.811 35.4236 440.635 35.3412L440.652 33.4213C442.123 33.4977 443.978 33.5774 446.218 33.6604C448.457 33.7433 450.665 33.794 452.841 33.8124C455.337 33.8336 457.673 33.8213 459.849 33.7758C462.026 33.7302 463.786 33.6811 465.131 33.6284ZM446.602 10.9108C448.074 10.9233 449.286 11.4136 450.238 12.3816C451.19 13.2857 451.66 14.5698 451.646 16.2337C451.634 17.5776 451.24 18.7584 450.463 19.7758C449.751 20.7938 448.591 21.776 446.982 22.7225C445.31 23.7323 443.223 24.5787 440.721 25.2616C438.219 25.9444 435.304 26.2718 431.976 26.2436C428.648 26.2154 425.739 25.8388 423.249 25.1137C420.759 24.3886 418.687 23.507 417.032 22.469C415.44 21.4955 414.264 20.4935 413.505 19.463C412.81 18.4331 412.468 17.2462 412.479 15.9022C412.493 14.2383 412.984 12.9624 413.951 12.0746C414.919 11.1227 416.139 10.653 417.611 10.6655C419.083 10.6779 420.328 11.1365 421.344 12.0411C422.36 12.9457 422.861 14.23 422.847 15.894C422.836 17.2379 422.443 18.3226 421.668 19.1481C420.957 19.9741 419.992 20.51 418.774 20.7557C419.79 21.6603 421.064 22.3751 422.596 22.9001C424.128 23.4251 425.725 23.7906 427.387 23.9967C429.113 24.2033 430.648 24.3123 431.992 24.3237C433.336 24.335 434.841 24.2518 436.507 24.0739C438.236 23.8965 439.871 23.5583 441.411 23.0593C443.016 22.5609 444.302 21.8677 445.269 20.9799C444.055 20.7136 443.068 20.1612 442.307 19.3228C441.61 18.4849 441.267 17.3939 441.279 16.05C441.293 14.386 441.816 13.1104 442.847 12.2231C443.943 11.3363 445.194 10.8989 446.602 10.9108Z" fill="white"/>
<path d="M524.748 42.7045L524.376 44.588C522.229 44.2288 520.547 44.1572 519.329 44.3732C518.188 44.5389 517.317 45.1496 516.717 46.2052C516.129 47.1981 515.605 48.856 515.146 51.1791L505.911 97.8909C505.464 100.151 505.317 101.884 505.47 103.088C505.624 104.293 506.197 105.189 507.19 105.777C508.245 106.377 509.828 106.951 511.938 107.498L511.566 109.382C510.146 108.971 508.338 108.548 506.14 108.114C504.018 107.629 501.858 107.169 499.661 106.735C497.212 106.251 494.914 105.829 492.767 105.47C490.633 105.048 488.894 104.769 487.55 104.634L487.923 102.75C490.082 103.047 491.733 103.112 492.875 102.947C494.079 102.793 494.982 102.189 495.582 101.133C496.182 100.077 496.705 98.4195 497.152 96.1593L506.388 49.4475C506.847 47.1244 506.994 45.392 506.828 44.2502C506.675 43.0456 506.07 42.1432 505.015 41.5431C504.034 40.8926 502.483 40.3249 500.361 39.8401L500.733 37.9565C502.039 38.28 503.753 38.6841 505.875 39.1689C507.998 39.6538 510.283 40.1382 512.732 40.6223C514.929 41.0568 517.101 41.4536 519.249 41.8129C521.458 42.1846 523.292 42.4818 524.748 42.7045ZM517.53 73.7664C520.858 74.4243 523.898 75.3841 526.649 76.6457C529.464 77.9197 531.714 79.7347 533.401 82.0907C535.088 84.4466 535.993 87.6264 536.115 91.6301L536.5 104.036C536.619 107.061 536.844 109.226 537.173 110.53C537.515 111.772 538.382 112.498 539.776 112.708C540.856 112.857 541.803 112.685 542.618 112.194C543.495 111.715 544.448 111.023 545.475 110.117L546.683 111.432C545.142 112.954 543.538 114.137 541.871 114.982C540.203 115.827 538.051 115.988 535.414 115.467C533.217 115.032 531.332 114.007 529.759 112.392C528.262 110.726 527.458 107.696 527.348 103.303L527.02 91.1042C526.976 88.3555 526.77 85.9335 526.401 83.8382C526.033 81.743 525.138 80.0003 523.716 78.6102C522.307 77.1573 520.002 76.1144 516.8 75.4813L508.795 73.8987L509.149 72.1093L517.53 73.7664ZM510.584 74.2524L510.938 72.4631C513.587 72.9216 515.89 72.8224 517.847 72.1654C519.879 71.4581 521.64 70.4689 523.131 69.1979L534.443 59.4958C537.037 57.2684 538.89 55.3189 540.003 53.6471C541.117 51.9753 541.358 50.5878 540.728 49.4847C540.111 48.3187 538.49 47.4437 535.865 46.8596L536.238 44.976C537.418 45.2747 538.63 45.5795 539.873 45.8905C541.129 46.1388 542.347 46.4122 543.528 46.7109C544.783 46.9591 545.945 47.1888 547.012 47.3998C548.645 47.7225 550.158 47.9891 551.551 48.1994C552.945 48.4097 554.119 48.5765 555.073 48.6999L554.701 50.5835C552.705 50.4498 550.691 50.7366 548.659 51.444C546.64 52.0886 544.496 53.361 542.229 55.2613L518.307 75.7792L510.584 74.2524Z" fill="white"/>
<path d="M566.505 52.0603C567.763 52.5377 569.417 53.144 571.466 53.8793C573.515 54.6145 575.543 55.3094 577.551 55.964C580.411 56.8962 583.159 57.7584 585.796 58.5505C588.432 59.3426 590.298 59.9171 591.393 60.2741C598.756 62.6742 603.717 66.1426 606.277 70.6794C608.837 75.2162 609.254 80.1315 607.529 85.4254C606.814 87.6159 605.696 89.8092 604.172 92.0051C602.668 94.1402 600.666 95.9446 598.167 97.4184C595.747 98.8512 592.778 99.7007 589.258 99.9669C585.738 100.233 581.605 99.5927 576.859 98.0455L568.097 95.1892L568.692 93.3638L576.541 95.9225C580.862 97.3308 584.415 97.5805 587.202 96.6715C590.05 95.7823 592.306 94.128 593.97 91.7085C595.694 89.3088 597.062 86.5574 598.074 83.4541C599.958 77.6735 600.21 72.9763 598.83 69.3627C597.511 65.7689 594.083 63.0695 588.546 61.2645C585.747 60.3521 583.753 60.2742 582.564 61.031C581.375 61.7877 580.264 63.7481 579.233 66.9123L564.476 112.184C563.761 114.374 563.439 116.087 563.508 117.321C563.638 118.575 564.312 119.602 565.532 120.404C566.752 121.205 568.619 122.083 571.135 123.038L570.54 124.864C568.998 124.226 567.01 123.511 564.576 122.717C562.162 121.863 559.707 121.029 557.212 120.216C554.839 119.443 552.608 118.749 550.52 118.135C548.451 117.461 546.758 116.976 545.44 116.682L546.035 114.856C548.144 115.409 549.775 115.671 550.928 115.643C552.142 115.635 553.111 115.143 553.833 114.167C554.555 113.191 555.273 111.607 555.987 109.417L570.745 64.1452C571.478 61.8938 571.831 60.1914 571.804 59.038C571.796 57.8237 571.303 56.8555 570.327 56.1334C569.432 55.3702 567.959 54.621 565.91 53.8858L566.505 52.0603Z" fill="white"/>
<path d="M651.227 82.902C656.726 85.4961 660.943 89.007 663.879 93.4347C666.872 97.8896 668.392 102.994 668.437 108.747C668.568 114.47 667.064 120.66 663.923 127.316C660.865 133.799 657.003 138.912 652.336 142.654C647.727 146.424 642.697 148.686 637.246 149.441C631.795 150.195 626.378 149.303 620.995 146.763C615.496 144.169 611.25 140.645 608.256 136.19C605.321 131.762 603.801 126.658 603.698 120.877C603.652 115.124 605.186 108.948 608.299 102.349C611.357 95.8663 615.22 90.7536 619.887 87.011C624.553 83.2684 629.583 81.0063 634.976 80.2245C640.427 79.4701 645.844 80.3626 651.227 82.902ZM650.143 84.301C646.38 82.5261 642.496 82.2857 638.489 83.5797C634.481 84.8738 630.618 87.4385 626.898 91.274C623.236 95.1367 619.985 100.078 617.145 106.098C614.251 112.233 612.564 117.983 612.085 123.348C611.692 128.682 612.355 133.276 614.075 137.13C615.88 140.954 618.548 143.699 622.079 145.364C625.842 147.139 629.726 147.38 633.734 146.086C637.741 144.792 641.575 142.213 645.237 138.35C648.985 134.457 652.265 129.53 655.077 123.568C657.999 117.374 659.656 111.61 660.05 106.276C660.501 100.97 659.853 96.4182 658.106 92.6219C656.386 88.7676 653.732 85.994 650.143 84.301Z" fill="white"/>
<path d="M737.031 134.982L735.98 136.588C734.124 135.45 732.592 134.752 731.383 134.496C730.262 134.221 729.225 134.461 728.273 135.214C727.356 135.914 726.249 137.255 724.952 139.236L698.871 179.074C697.609 181.002 696.823 182.552 696.513 183.727C696.203 184.901 696.399 185.946 697.098 186.864C697.852 187.816 699.104 188.942 700.854 190.241L699.803 191.847C698.748 191.004 697.311 189.986 695.49 188.794C693.705 187.549 691.768 186.242 689.68 184.875C687.538 183.473 685.352 182.08 683.121 180.696C680.98 179.294 679.177 178.191 677.715 177.387L678.767 175.78C681.086 177.145 682.94 178.053 684.328 178.503C685.716 178.953 686.913 178.819 687.919 178.1C688.978 177.417 690.139 176.111 691.401 174.184L717.482 134.346C718.779 132.365 719.583 130.787 719.892 129.613C720.202 128.439 719.98 127.375 719.227 126.423C718.562 125.452 717.319 124.371 715.499 123.179L714.454 122.496C712.58 121.269 711.065 120.545 709.91 120.324C708.843 120.084 707.842 120.385 706.909 121.227C706.01 122.016 704.849 123.321 703.427 125.144C701.091 128.128 698.597 131.353 695.945 134.818C693.347 138.319 690.652 141.794 687.858 145.244C685.118 148.728 682.296 151.929 679.391 154.847C676.486 157.764 673.595 160.194 670.718 162.135C667.876 164.022 665.063 165.164 662.28 165.56C659.496 165.956 656.819 165.313 654.249 163.63C652.482 162.473 651.085 160.985 650.058 159.165C649.066 157.292 649.219 155.365 650.516 153.383C651.427 151.991 652.601 151.192 654.037 150.984C655.508 150.723 656.913 151.031 658.252 151.908C659.43 152.679 660.183 153.631 660.512 154.764C660.895 155.933 660.735 157.052 660.034 158.123C659.263 159.301 658.337 160.072 657.258 160.436C656.213 160.747 654.918 160.855 653.373 160.762C653.713 161.061 654.043 161.315 654.364 161.526C654.739 161.771 655.034 161.964 655.248 162.104C657.711 163.717 660.386 164.129 663.273 163.342C666.16 162.554 669.164 160.887 672.284 158.341C675.493 155.776 678.742 152.624 682.03 148.887C685.319 145.149 688.596 141.137 691.862 136.849C695.163 132.508 698.402 128.203 701.579 123.934C702.967 122.165 703.815 120.694 704.125 119.52C704.488 118.381 704.284 117.291 703.512 116.25C702.794 115.244 701.488 114.083 699.596 112.768L700.647 111.161C701.737 111.951 703.04 112.881 704.558 113.951C706.076 115.021 707.477 115.977 708.762 116.818C709.994 117.625 711.189 118.369 712.349 119.052C713.597 119.716 714.81 120.434 715.988 121.205C718.023 122.537 719.835 123.8 721.425 124.994C723.05 126.134 725.013 127.458 727.316 128.965C728.387 129.666 729.511 130.402 730.689 131.174C731.902 131.891 733.044 132.601 734.115 133.302C735.275 133.984 736.247 134.544 737.031 134.982Z" fill="white"/>
<path d="M764.522 157.714L763.259 159.16C761.578 157.777 760.156 156.876 758.994 156.455C757.922 156.029 756.862 156.124 755.815 156.739C754.81 157.306 753.529 158.481 751.972 160.265L720.654 196.132C719.138 197.868 718.146 199.296 717.678 200.416C717.21 201.536 717.259 202.599 717.826 203.604C718.441 204.651 719.526 205.938 721.081 207.466L719.818 208.912C718.794 207.847 717.438 206.578 715.75 205.105C714.153 203.626 712.511 202.149 710.824 200.676C708.944 199.034 707.163 197.522 705.482 196.139C703.843 194.708 702.475 193.599 701.378 192.811L702.641 191.365C704.364 192.699 705.762 193.58 706.834 194.006C707.955 194.475 709.038 194.401 710.085 193.786C711.132 193.171 712.413 191.996 713.929 190.26L745.246 154.393C746.804 152.609 747.796 151.181 748.222 150.109C748.691 148.989 748.617 147.905 748.002 146.858C747.477 145.805 746.416 144.539 744.819 143.059L746.082 141.613C747.052 142.545 748.336 143.751 749.933 145.23C751.53 146.71 753.269 148.27 755.149 149.912C756.836 151.385 758.52 152.813 760.201 154.196C761.931 155.622 763.371 156.794 764.522 157.714ZM780.675 180.229C780.675 180.229 780.419 180.473 779.908 180.962C779.439 181.402 778.949 181.866 778.437 182.354C777.974 182.884 777.743 183.149 777.743 183.149L713.016 198.895L715.948 195.975L780.675 180.229ZM796.195 185.37L794.932 186.816C793.251 185.433 791.829 184.531 790.667 184.111C789.595 183.685 788.535 183.779 787.488 184.394C786.484 184.961 785.202 186.137 783.645 187.92L752.327 223.788C750.812 225.523 749.82 226.951 749.351 228.072C748.883 229.192 748.932 230.255 749.499 231.259C750.114 232.306 751.199 233.594 752.754 235.121L751.492 236.568C750.563 235.587 749.28 234.381 747.641 232.95C746.044 231.471 744.305 229.91 742.425 228.269C740.786 226.837 739.101 225.409 737.372 223.984C735.685 222.511 734.245 221.338 733.052 220.467L734.314 219.02C736.038 220.355 737.435 221.236 738.508 221.662C739.628 222.131 740.711 222.057 741.758 221.442C742.805 220.827 744.087 219.651 745.602 217.916L776.92 182.048C778.477 180.265 779.469 178.837 779.895 177.765C780.364 176.644 780.291 175.561 779.675 174.514C779.15 173.461 778.089 172.194 776.492 170.715L777.755 169.269C778.822 170.285 780.178 171.554 781.823 173.076C783.468 174.597 785.111 176.073 786.75 177.505C788.63 179.146 790.411 180.659 792.092 182.042C793.773 183.425 795.141 184.534 796.195 185.37Z" fill="white"/>
<path d="M819.672 211.981L818.222 213.239C816.748 211.637 815.464 210.548 814.371 209.971C813.368 209.401 812.305 209.348 811.183 209.813C810.11 210.235 808.679 211.223 806.89 212.774L770.92 243.974C769.179 245.484 768 246.761 767.381 247.806C766.762 248.851 766.664 249.91 767.087 250.984C767.552 252.105 768.449 253.53 769.778 255.258L768.328 256.516C767.46 255.32 766.292 253.876 764.824 252.184C763.447 250.498 762.024 248.809 760.556 247.117C758.921 245.232 757.366 243.488 755.892 241.886C754.466 240.242 753.265 238.955 752.287 238.023L753.738 236.765C755.26 238.325 756.523 239.39 757.526 239.961C758.571 240.579 759.654 240.656 760.776 240.191C761.898 239.727 763.329 238.739 765.07 237.23L801.04 206.03C802.829 204.478 804.008 203.201 804.579 202.198C805.197 201.153 805.274 200.07 804.809 198.948C804.435 197.832 803.559 196.432 802.181 194.746L803.632 193.488C804.464 194.545 805.569 195.917 806.947 197.602C808.324 199.288 809.83 201.074 811.466 202.959C812.934 204.652 814.405 206.299 815.879 207.9C817.395 209.551 818.659 210.911 819.672 211.981ZM794.903 232.067C797.126 234.629 798.936 237.253 800.333 239.938C801.772 242.672 802.434 245.486 802.319 248.382C802.204 251.277 800.966 254.342 798.604 257.577L791.291 267.606C789.528 270.067 788.376 271.913 787.835 273.145C787.342 274.335 787.581 275.441 788.552 276.463C789.313 277.243 790.166 277.689 791.111 277.801C792.098 277.962 793.274 278 794.642 277.916L794.787 279.696C792.637 279.951 790.644 279.901 788.809 279.543C786.975 279.186 785.177 277.992 783.415 275.962C781.948 274.27 781.089 272.303 780.84 270.063C780.681 267.828 781.907 264.944 784.517 261.409L791.748 251.578C793.401 249.382 794.726 247.343 795.721 245.463C796.717 243.583 797.08 241.658 796.812 239.688C796.592 237.676 795.413 235.438 793.274 232.972L787.927 226.808L789.305 225.612L794.903 232.067ZM789.122 228.186L790.5 226.99C792.31 228.979 794.188 230.315 796.136 230.997C798.174 231.687 800.172 231.987 802.129 231.899L817.015 231.187C820.43 231.021 823.089 230.621 824.995 229.985C826.9 229.349 827.943 228.402 828.123 227.144C828.351 225.845 827.609 224.159 825.896 222.086L827.346 220.828C828.095 221.789 828.864 222.774 829.654 223.782C830.493 224.749 831.287 225.713 832.035 226.674C832.874 227.641 833.65 228.535 834.363 229.357C835.453 230.614 836.483 231.753 837.454 232.775C838.425 233.797 839.249 234.649 839.927 235.332L838.476 236.59C836.983 235.259 835.217 234.249 833.179 233.56C831.19 232.829 828.717 232.517 825.76 232.625L794.28 234.132L789.122 228.186Z" fill="white"/>
<g clip-path="url(#clip1_250_4)">
<path d="M152.407 78.0541C163.66 74.8765 167.182 81.9248 167.182 81.9248C167.182 81.9248 171.321 81.8131 172.691 84.4034C172.691 84.4034 170.506 84.0583 169.291 85.5068C168.116 86.9069 168.873 88.9535 166.5 91.7813C161.226 98.0675 153.471 96.6395 153.471 96.6395C161.961 94.1082 162.562 88.0157 162.562 88.0157C158.936 89.3316 147.299 88.8148 147.299 88.8148C155.295 87.4634 158.065 86.3092 158.065 86.3092C156.03 86.6927 148.236 85.981 148.236 85.981C153.302 85.5667 161.728 83.3653 161.728 83.3653C158.77 78.2263 152.407 78.0541 152.407 78.0541Z" fill="url(#paint0_linear_250_4)"/>
</g>
<defs>
<linearGradient id="paint0_linear_250_4" x1="153.364" y1="77.3914" x2="164.957" y2="93.4529" gradientUnits="userSpaceOnUse">
<stop offset="1" stop-color="white"/>
</linearGradient>
<clipPath id="clip0_250_4">
<rect width="150.255" height="146.455" fill="white" transform="translate(606.219) rotate(26.4425)"/>
</clipPath>
<clipPath id="clip1_250_4">
<rect width="22.7998" height="22.7998" fill="white" transform="translate(142.055 87.5176) rotate(-50)"/>
</clipPath>
</defs>
</svg>
